<?xml version="1.0" encoding="UTF-8"?>
<svg width="256px" height="256px" viewBox="0 0 256 256" version="1.1" xmlns="http://www.w3.org/2000/svg" preserveAspectRatio="xMidYMid">
    <g>
        <path d="M128,0 C57.28,0 0,57.28 0,128 C0,198.72 57.28,256 128,256 C198.72,256 256,198.72 256,128 C256,57.28 198.72,0 128,0" fill="#4A90E2"></path>
        <path d="M186.624,69.632 L186.624,118.272 L162.816,118.272 L162.816,89.088 L93.184,89.088 L93.184,166.912 L162.816,166.912 L162.816,137.728 L186.624,137.728 L186.624,186.368 L69.376,186.368 L69.376,69.632 L186.624,69.632 Z" fill="#FFFFFF"></path>
        <path d="M147.968,108.544 L179.2,128 L147.968,147.456 L147.968,108.544 Z" fill="#FFFFFF"></path>
    </g>
</svg> 