<?xml version="1.0" encoding="UTF-8"?>
<svg width="256px" height="206px" viewBox="0 0 256 206" version="1.1" xmlns="http://www.w3.org/2000/svg" preserveAspectRatio="xMidYMid">
    <g>
        <path d="M170.2517,56.8186 L192.5047,34.5656 L193.9877,25.1956 C153.4367,-11.6774 88.9757,-7.4964 52.4207,33.9196 C42.2667,45.4226 34.7337,58.8506 30.1617,73.3586 L39.0167,72.4886 L83.7987,63.1796 L87.9787,58.9996 C108.5837,39.6136 141.4147,37.9246 163.9027,55.0376 L170.2517,56.8186" fill="#EA4335"></path>
        <path d="M224.2048,73.9182 C218.0378,52.5032 204.8708,34.1902 186.8168,21.6842 L163.9028,55.0372 C175.0198,63.3522 182.6078,75.9632 184.6548,89.9592 L184.8628,97.4922 L224.9248,97.8952 L226.2078,96.6132 C227.0698,89.0852 226.5178,81.4382 224.2048,73.9182" fill="#4285F4"></path>
        <path d="M58.2298,146.0401 C65.7018,153.5111 74.6758,159.1161 84.4518,162.4251 C107.0598,170.2141 132.1818,165.0841 149.6548,148.7131 C149.6548,148.7131 149.7458,148.6231 149.8388,148.5311 L184.8628,97.4921 L184.6548,89.9591 C182.6078,75.9631 175.0198,63.3521 163.9028,55.0371 L130.5608,63.6551 L58.2298,146.0401" fill="#34A853"></path>
        <path d="M58.2298,146.0401 C51.0998,138.9111 45.7138,130.1991 42.5188,120.6461 C39.0758,110.4791 38.1728,99.5881 39.8768,89.0151 L30.1618,73.3581 C23.9068,92.1591 23.5958,112.5271 29.2748,131.5851 C34.9528,150.6431 46.2898,167.2741 61.7278,179.2401 L96.4088,149.0231 L58.2298,146.0401" fill="#FBBC05"></path>
        <path d="M39.8768,89.0151 C41.9468,76.6271 47.7048,65.2581 56.2888,56.2721 C69.8278,42.1511 89.2868,34.8491 109.5108,36.3271 L110.0498,36.3761 L170.2518,56.8191 L163.9028,55.0381 C141.4148,37.9251 108.5838,39.6141 87.9788,58.9991 L39.0168,72.4881 L39.8768,89.0151" fill="#EA4335"></path>
    </g>
</svg> 