<?xml version="1.0" encoding="UTF-8"?>
<svg width="256px" height="346px" viewBox="0 0 256 346" version="1.1" xmlns="http://www.w3.org/2000/svg" preserveAspectRatio="xMidYMid">
    <path d="M82.5539491,267.472524 C82.5539491,267.472524 69.35552,275.147869 91.9468218,277.745105 C119.315549,280.867375 133.303389,280.419607 163.463913,274.711273 C163.463913,274.711273 171.393396,279.683258 182.467491,283.989644 C114.855564,312.966982 29.4483782,282.311215 82.5539491,267.472524" fill="#5382A1"></path>
    <path d="M74.2921309,229.658996 C74.2921309,229.658996 59.4888145,240.616727 82.0968727,242.955171 C111.333004,245.971316 134.421411,246.218007 174.373236,238.524975 C174.373236,238.524975 179.899113,244.127185 188.588218,247.190807 C106.841367,271.094691 15.79008,249.075898 74.2921309,229.658996" fill="#5382A1"></path>
    <path d="M143.941818,165.514705 C160.601367,184.695156 139.564684,201.955142 139.564684,201.955142 C139.564684,201.955142 181.866124,180.117876 162.438982,152.772422 C144.294633,127.271098 130.380335,114.600495 205.706705,70.9138618 C205.706705,70.9138618 87.4691491,100.44416 143.941818,165.514705" fill="#E76F00"></path>
    <path d="M233.364015,295.441687 C233.364015,295.441687 243.131113,303.489396 222.60736,309.715316 C183.580858,321.537862 60.1748945,325.107898 25.8932364,310.186356 C13.5698618,304.825251 36.67968,297.385425 43.9491491,295.824291 C51.5304727,294.180305 55.8629236,294.486575 55.8629236,294.486575 C42.15808,284.832116 -32.7195927,313.443607 17.8287709,321.637469 C155.681513,343.993251 269.121164,311.570618 233.364015,295.441687" fill="#5382A1"></path>
    <path d="M88.9008873,190.479825 C88.9008873,190.479825 26.1287564,205.389265 66.6717091,210.803433 C89.8827509,213.095331 135.207919,212.683352 177.0757,208.330494 C215.885162,204.904657 252.790236,195.638765 252.790236,195.638765 C252.790236,195.638765 243.659522,199.646221 237.213633,204.299916 C173.66276,221.440003 0.533127273,214.898989 59.6606545,203.605015 C107.395938,194.384916 88.9008873,190.479825 88.9008873,190.479825" fill="#5382A1"></path>
    <path d="M201.182436,253.062803 C263.5219,216.981988 236.475375,183.430862 220.328879,189.658338 C217.393085,190.958464 215.915816,191.858145 215.915816,191.858145 C215.915816,191.858145 217.150436,188.778918 219.435034,187.459973 C255.377284,171.628362 283.792128,225.934841 200.204102,254.383814 C200.204102,254.383814 201.846373,253.644316 201.182436,253.062803" fill="#5382A1"></path>
    <path d="M162.439955,0 C162.439955,0 198.693055,36.2500474 128.963249,91.9309827 C73.2691991,138.902537 120.040456,166.591644 128.945883,189.83712 C93.790551,157.790222 68.9569472,129.311429 87.1329238,100.593487 C112.310777,60.1475123 176.395828,46.1973069 162.439955,0" fill="#E76F00"></path>
    <path d="M95.2683055,344.665367 C157.466996,348.646865 252.980131,342.45632 255.24224,313.025629 C255.24224,313.025629 250.893964,324.182575 203.838371,333.042967 C150.750487,343.033484 85.2740655,341.867055 46.4393309,335.464262 C46.4402618,335.463331 54.3892945,342.043927 95.2683055,344.665367" fill="#5382A1"></path>
</svg> 