<?xml version="1.0" encoding="UTF-8"?>
<svg width="256px" height="256px" viewBox="0 0 256 256" version="1.1" xmlns="http://www.w3.org/2000/svg" preserveAspectRatio="xMidYMid">
    <g>
        <path d="M128,0 C57.28,0 0,57.28 0,128 C0,198.72 57.28,256 128,256 C198.72,256 256,198.72 256,128 C256,57.28 198.72,0 128,0" fill="#C71A36"></path>
        <path d="M128,25.6 C71.68,25.6 25.6,71.68 25.6,128 C25.6,184.32 71.68,230.4 128,230.4 C184.32,230.4 230.4,184.32 230.4,128 C230.4,71.68 184.32,25.6 128,25.6" fill="#FFFFFF"></path>
        <path d="M128,38.4 C78.72,38.4 38.4,78.72 38.4,128 C38.4,177.28 78.72,217.6 128,217.6 C177.28,217.6 217.6,177.28 217.6,128 C217.6,78.72 177.28,38.4 128,38.4 M128,51.2 C170.24,51.2 204.8,85.76 204.8,128 C204.8,170.24 170.24,204.8 128,204.8 C85.76,204.8 51.2,170.24 51.2,128 C51.2,85.76 85.76,51.2 128,51.2" fill="#C71A36"></path>
        <path d="M128,64 C92.16,64 64,92.16 64,128 C64,163.84 92.16,192 128,192 C163.84,192 192,163.84 192,128 C192,92.16 163.84,64 128,64 M128,76.8 C156.16,76.8 179.2,99.84 179.2,128 C179.2,156.16 156.16,179.2 128,179.2 C99.84,179.2 76.8,156.16 76.8,128 C76.8,99.84 99.84,76.8 128,76.8" fill="#C71A36"></path>
        <path d="M128,89.6 C106.24,89.6 89.6,106.24 89.6,128 C89.6,149.76 106.24,166.4 128,166.4 C149.76,166.4 166.4,149.76 166.4,128 C166.4,106.24 149.76,89.6 128,89.6 M128,102.4 C142.72,102.4 153.6,113.28 153.6,128 C153.6,142.72 142.72,153.6 128,153.6 C113.28,153.6 102.4,142.72 102.4,128 C102.4,113.28 113.28,102.4 128,102.4" fill="#C71A36"></path>
        <path d="M128,115.2 C120.32,115.2 115.2,120.32 115.2,128 C115.2,135.68 120.32,140.8 128,140.8 C135.68,140.8 140.8,135.68 140.8,128 C140.8,120.32 135.68,115.2 128,115.2" fill="#C71A36"></path>
    </g>
</svg> 