<?xml version="1.0" encoding="UTF-8"?>
<svg width="256px" height="256px" viewBox="0 0 256 256" version="1.1" xmlns="http://www.w3.org/2000/svg" preserveAspectRatio="xMidYMid">
    <g>
        <path d="M251.172245,116.593517 L139.398753,4.82017 C132.966433,-1.60690067 122.525852,-1.60690067 116.093532,4.82017 L92.9103852,28.0068419 L122.317315,57.4138718 C129.16503,55.1072923 136.910484,57.1450185 142.460208,62.6942508 C148.028374,68.2618714 150.049485,76.0486934 147.700332,82.9071736 L176.263095,111.469936 C183.122151,109.120783 190.907975,111.141894 196.475593,116.710562 C204.433559,124.668527 204.433559,137.558985 196.475593,145.51695 C188.517628,153.474915 175.62717,153.474915 167.669204,145.51695 C161.726396,139.574142 159.735283,130.969563 162.715026,123.958619 L136.809917,98.0535073 L136.809917,170.414984 C138.815774,171.40294 140.675024,172.774193 142.460208,174.559377 C150.418174,182.517342 150.418174,195.4078 142.460208,203.365766 C134.502243,211.323731 121.611785,211.323731 113.653819,203.365766 C105.695854,195.4078 105.695854,182.517342 113.653819,174.559377 C115.674931,172.538265 118.077358,171.01133 120.644982,170.089874 L120.644982,96.1442971 C118.077358,95.2228414 115.674931,93.6959064 113.653819,91.6747946 C107.62762,85.6486053 105.679751,76.9314355 108.71785,69.8709689 L79.8338315,41.0039297 L4.52845945,116.309361 C-1.90381649,122.741681 -1.90381649,133.182262 4.52845945,139.614582 L116.302001,251.388024 C122.734321,257.815595 133.174902,257.815595 139.607222,251.388024 L251.172245,139.823001 C257.604565,133.390681 257.604565,122.9501 251.172245,116.593517" fill="#DE4C36"></path>
    </g>
</svg> 