<?xml version="1.0" encoding="UTF-8"?>
<svg width="256px" height="256px" viewBox="0 0 256 256" version="1.1" xmlns="http://www.w3.org/2000/svg" preserveAspectRatio="xMidYMid">
    <g>
        <path d="M235.648276,194.211632 C221.729851,193.864559 210.942872,195.257272 201.895604,199.083964 C199.285899,200.127406 195.109927,200.128498 194.761767,203.433458 C196.154498,204.826189 196.328034,207.087716 197.546096,209.001055 C199.635192,212.479551 203.287247,217.178343 206.593317,219.614507 C210.246461,222.397748 213.900691,225.180989 217.727416,227.617153 C224.513092,231.793125 232.168625,234.22929 238.779677,238.405262 C242.433908,240.841427 246.086876,243.971711 249.740019,246.581415 C251.655576,247.974147 252.873638,250.235673 255.307685,251.105959 L255.307685,250.757799 C254.088535,249.191831 253.915,246.930305 252.696938,245.189151 C250.955784,243.449085 249.215717,241.880899 247.473475,240.14074 C242.255812,233.701024 236.167432,228.010515 229.555246,223.31463 C224.166019,219.615688 213.027178,214.27089 211.113797,208.523575 C211.113797,208.523575 210.942872,208.177591 210.76834,208.00397 C214.247924,207.654722 218.423897,206.087624 221.729851,204.996386 C227.297561,203.086263 232.340638,203.434424 238.081892,201.694357 C240.864133,200.997659 243.647461,200.129462 246.433993,199.084932 L246.433993,197.694382 C244.172467,195.432856 242.607587,192.477845 240.344973,190.215231 C233.905246,184.125763 226.945571,178.558054 220.157677,173.685788 C216.504533,170.905764 212.155043,168.990208 208.328317,166.726505 C206.937767,165.85722 204.676241,165.333696 203.807956,164.115634 C201.026803,160.810674 199.459726,156.634702 197.197112,153.156206 C192.497232,145.327017 188.146654,136.800648 183.794988,128.798052 C180.664704,123.228143 178.40209,118.004935 174.748947,112.955385 C159.35055,91.2102324 142.991893,77.6379829 121.767547,64.0657333 C116.892064,61.1107228 111.146837,59.7179915 105.227018,57.8032494 C99.1375808,57.6296274 93.0481441,57.1061076 86.9587073,56.9324856 C83.6544977,55.7136447 80.3495569,52.2351485 77.2200754,50.4947134 C66.6493598,44.4052767 38.51155,30.6595505 25.9876059,45.7979869 C17.6324481,56.0733642 30.3309598,66.2961431 34.3323782,70.1228353 C37.2873887,72.9016565 41.1140809,76.2058662 43.0288229,79.6843624 C44.0742862,82.1197471 44.2479082,84.5544106 45.2926503,87.1659611 C47.7280349,93.7770134 50.3395854,101.084968 53.8180816,107.175524 C55.7328236,110.305807 57.8219189,113.609679 60.2573035,116.393009 C61.6500348,118.135251 64.2608641,118.997753 64.6082515,121.952764 C62.1728668,125.432348 61.9992448,130.47861 60.2573035,134.307512 C54.1671456,147.006112 55.9075807,163.711795 62.1728668,173.685788 C64.2608641,176.815984 69.8307523,183.255699 76.1738909,180.127597 C81.7437791,177.344356 80.1775396,170.037567 81.9179747,164.115634 C82.2653621,162.894355 81.9179747,162.200873 82.6146723,161.329371 L82.6146723,161.503907 C84.3568924,164.98349 86.0983913,168.288451 87.6654521,171.766946 C92.0160305,177.856414 98.9756847,184.125763 105.587396,188.648499 C108.891268,191.082645 111.495355,195.083736 115.497891,196.649704 L115.497891,196.301544 L115.323356,196.301544 C114.45077,194.906631 113.055921,194.387668 111.843298,193.517254 C109.407152,191.25473 106.797448,188.301901 104.88311,185.867843 C99.6611006,178.905951 95.1391858,171.072375 90.9624927,163.243186 C88.8735749,159.414284 87.1314747,155.237224 85.3901533,151.410503 C84.5309733,149.843346 84.5309733,147.40719 83.1382419,146.536777 C81.0493242,149.843346 77.9190215,152.801574 76.1738909,156.45581 C73.2188804,162.546366 72.8714929,169.861051 71.8260297,177.16184 C71.3033322,177.335287 71.4769542,177.161841 71.3033322,177.509912 C67.1266391,176.469687 65.7339077,172.115892 64.0825864,168.463837 C59.5606716,158.315721 58.8648144,143.092029 62.1728668,131.523396 C63.0443485,128.567297 67.9958192,118.767476 66.2544978,115.985323 C65.2090346,113.202082 62.1728668,111.460928 60.6057452,109.197138 C58.5168274,106.240039 56.2539125,102.587083 54.6867909,99.2828731 C50.1648761,89.8300392 47.7280349,79.1607426 42.8552009,69.5992156 C40.5922861,64.9372149 36.5908677,60.0690798 33.4605041,55.7144661 C30.1571157,50.8463309 26.5050116,47.3670134 23.8934611,41.9714355 C23.0342811,40.2301141 21.8154402,37.4512929 23.0342811,35.5365509 C23.3816685,34.3177101 24.0775257,33.7950126 25.2963666,33.4476252 C27.2111086,31.8805036 33.9832016,34.3177101 36.0721193,35.3629366 C41.8107593,37.9736872 46.6788945,40.4037361 51.5470296,43.7079457 C53.9824143,45.2750674 56.5932436,48.4054311 59.5606716,49.1012883 L62.5202542,49.1012883 C68.6104121,50.3201291 75.4780337,49.4485687 81.2221175,50.8413001 C90.2693855,53.2766847 98.4513659,57.2789244 105.937733,61.6295028 C128.033215,74.8481595 146.12599,94.1226796 157.738858,117.611071 C159.827954,121.434973 160.523613,124.913469 162.264767,128.911444 C165.742175,137.26427 170.089537,145.966012 173.567945,154.14476 C177.046353,162.149544 180.351313,170.327901 185.399775,177.116379 C187.836021,180.767346 195.664246,182.509588 200.186982,184.424056 C203.317265,185.816787 208.366815,187.037067 211.323914,188.777134 C216.89918,191.906329 222.300935,195.558384 227.52305,199.037881 C230.127315,200.778036 238.081892,204.907475 238.779677,208.3861 L235.648276,194.211632 L235.648276,194.211632 Z" fill="#00546B"></path>
        <path d="M58.8647037,43.7079457 C57.2975821,43.7079457 56.0795625,43.8815677 54.8599004,44.2289551 C54.8599004,44.2289551 54.8599004,44.2297765 54.8599004,44.4033985 L55.0335224,44.4033985 C56.0795625,46.1447199 57.9943045,47.1901831 59.3870359,48.7573048 C60.4324991,50.6720468 61.4779624,52.5867888 62.5234256,54.5015308 C62.6970476,54.3279088 62.8706696,54.1542868 62.8706696,54.1542868 C64.7862329,52.9354459 65.8308963,50.8465282 65.8308963,47.7128806 C64.9593359,46.8413203 64.9601573,45.9705812 64.0877756,45.0990208 C62.8689347,44.2289551 60.2588771,43.7079457 58.8647037,43.7079457 L58.8647037,43.7079457 Z" fill="#00546B"></path>
    </g>
</svg> 