<?xml version="1.0" encoding="UTF-8"?>
<svg width="256px" height="256px" viewBox="0 0 256 256" version="1.1" xmlns="http://www.w3.org/2000/svg" preserveAspectRatio="xMidYMid">
    <g>
        <path d="M38.9437824,35.879008 C89.5234256,-13.1200214 170.398168,-11.8028432 219.397197,39.0402357 C224.929346,31.6640377 229.671187,23.4975328 233.095851,15.0675923 C249.165425,64.0666217 258.912543,105.162582 255.224444,137.038295 C253.380395,163.90873 242.547022,189.725423 223.654694,209.716851 C171.825036,264.333389 86.3730136,260.329983 39.3569484,201.951598 C-0.931141565,151.382598 -9.31777531,76.0252406 38.9437824,35.879008 Z M46.8851901,190.052019 C45.8734792,188.677348 44.8943651,187.272321 43.9357657,185.841304 L43.8059807,185.828809 L43.8059807,185.841304 L43.9357657,185.841304 C44.8943651,187.272321 45.8734792,188.677348 46.8851901,190.052019 Z M233.079857,151.105421 C180.284574,190.039525 96.5155,167.973997 42.7852761,169.561438 C42.7852761,169.561438 35.8004238,169.561438 28.815571,170.35017 C28.815571,170.35017 30.4935014,169.29766 32.4332975,168.182664 C70.1247772,153.325844 89.2465273,151.375107 112.983116,139.622042 C166.499337,112.016172 214.525279,62.5690159 222.936679,24.7493671 C203.414077,91.0599998 140.454074,138.424839 87.0894611,153.532342 C53.2601365,163.059965 15.2686015,170.35017 15.2686015,170.35017 L12.1534766,168.844239 C-13.9396321,154.237582 -0.381783534,96.6144387 60.6866459,83.0270135 C91.9571174,75.9307901 121.744436,82.6888558 155.123719,73.2986751 C191.393096,63.0824876 233.079857,32.3577159 243.608481,0 C254.756022,43.4305193 285.937897,112.147914 233.079857,151.105421 Z" fill="#6DB33F"></path>
    </g>
</svg> 